
<svg xmlns="http://www.w3.org/2000/svg" viewBox="0 0 512 512"
 xmlns:xlink="http://www.w3.org/1999/xlink"
 xmlns:xodm="http://www.corel.com/coreldraw/odm/2003">
 <defs>
  <style type="text/css">
   <![CDATA[
    .fil0 {fill:#FF3C00}
   ]]>
  </style>
 </defs>
 <g id="Layer_x0020_1">
  <metadata id="CorelCorpID_0Corel-Layer"/>
  <path class="fil0" d="M0 0l512 0 0 512 -512 0 0 -512zm114 155c4,5 36,96 42,111 32,82 21,87 68,87 52,0 103,0 155,0 28,0 29,-19 36,-42 6,-20 12,-39 19,-59 6,-20 13,-39 19,-59 10,-33 -30,-26 -49,-26 -52,0 -103,0 -155,0 -12,0 -27,-1 -38,0 -10,1 -19,9 -17,21 3,12 12,13 25,13l194 0 -37 117 -164 0 -30 -80c-10,-27 -20,-54 -30,-81 -17,-45 -8,-37 -73,-37 -10,0 -15,2 -19,8 -4,7 -2,17 2,21 8,9 36,5 51,5zm251 222c-14,2 -26,15 -24,32 2,14 15,26 32,24 35,-5 29,-61 -8,-55zm-155 0c-37,6 -27,63 11,55 13,-3 24,-16 21,-33 -3,-13 -15,-25 -32,-22z"/>
 </g>
</svg>
