<svg xmlns="http://www.w3.org/2000/svg" xml:space="preserve" version="1.1" style="shape-rendering:geometricPrecision; text-rendering:geometricPrecision; image-rendering:optimizeQuality; fill-rule:evenodd; clip-rule:evenodd"
viewBox="0 0 512 512"
 xmlns:xlink="http://www.w3.org/1999/xlink"
 xmlns:xodm="http://www.corel.com/coreldraw/odm/2003">
 <defs>
  <style type="text/css">
   <![CDATA[
    .fil0 {fill:#FF3C00}
   ]]>
  </style>
 </defs>
 <g id="Layer_x0020_1">
  <metadata id="CorelCorpID_0Corel-Layer"/>
  <path class="fil0" d="M0 0l512 0 0 512 -512 0 0 -512zm358 112c5,-1 10,-1 16,-1 10,0 17,-1 22,-4 5,-3 8,-8 10,-17 1,-3 2,-5 4,-6 1,-1 2,-1 3,-1 1,0 2,1 3,1 1,1 3,4 3,7 0,5 -2,10 -4,14 -3,5 -8,10 -11,12 -9,6 -16,6 -25,6 -2,0 -4,0 -6,0 1,2 3,4 5,7 2,3 5,5 7,9 9,12 14,24 16,36 3,12 4,24 4,38 3,0 6,1 9,1 11,1 24,2 26,6 2,4 -9,45 -17,73 -3,10 -5,18 -6,21l0 1c-2,8 -6,23 -8,29l0 1 -1 0c-6,2 -16,2 -25,3 -5,0 -10,1 -13,1 -6,1 -12,1 -19,2 -6,1 -13,1 -19,2l-77 7c-4,1 -11,1 -20,2 -21,2 -49,4 -53,7 -2,1 -4,3 -5,6 -1,2 -2,5 -1,7 0,2 1,5 2,7 1,2 3,3 5,4 6,3 20,2 31,2 3,0 5,0 7,0 9,0 23,0 40,0 49,0 119,-1 139,1l1 0 0 1c1,2 1,3 1,5 0,1 0,3 -1,5l0 1 -1 0c-4,1 -9,1 -14,1l-3 0c0,1 1,2 1,2 1,2 2,5 3,9 1,10 -3,18 -8,23 -3,4 -8,6 -12,7 -5,1 -10,1 -14,0 -7,-2 -14,-6 -18,-15 -5,-11 -3,-19 -1,-24 0,-1 1,-2 1,-3l0 -1c-2,0 -5,0 -8,0 -1,0 -2,0 -3,0 -5,0 -11,0 -18,0 -22,0 -51,-1 -62,1 0,1 1,2 1,3 0,1 1,1 1,2 0,1 1,2 1,4 0,1 1,3 1,4 1,10 -3,17 -8,22 -4,3 -8,6 -13,7 -5,1 -10,1 -14,0 -7,-2 -14,-7 -19,-16 -6,-11 -2,-18 1,-26l0 -1c-1,0 -2,0 -3,0 -6,0 -10,-1 -15,-4 -3,-1 -5,-4 -7,-6 -2,-2 -4,-5 -5,-8 -6,-19 6,-28 13,-33l1 -1c-1,-6 -5,-15 -7,-22 -1,-3 -2,-6 -3,-9 -2,-4 -3,-8 -4,-12 -2,-7 -4,-13 -7,-20 -5,-14 -9,-27 -14,-41 -3,-8 -5,-16 -8,-24 -3,-8 -5,-16 -8,-24 -5,-14 -9,-28 -14,-42 -1,-4 -5,-5 -9,-6 -1,0 -2,-1 -3,-1 -5,-1 -8,-3 -12,-4l-4 -1c-2,-1 -5,-2 -9,-3 -9,-3 -20,-6 -24,-8l-1 -1 0 -8 1 -1c5,-3 7,-3 12,-1 1,0 2,1 3,1 2,1 4,1 6,2 2,1 5,2 8,3 12,4 21,7 27,9 6,2 10,3 12,4 3,2 4,5 6,11 1,2 1,4 2,7 1,2 1,4 2,6 2,7 5,16 7,19 3,0 6,1 9,1 8,1 18,2 24,1 0,-1 1,-3 1,-5 1,-6 3,-14 6,-24 10,-24 25,-43 44,-56 19,-13 42,-19 69,-19 10,0 24,2 36,6 10,3 19,7 23,12l1 1 -1 1c-6,7 -12,4 -20,0 -4,-2 -9,-5 -15,-6l1 1c2,3 4,5 7,10 2,4 2,8 3,11 0,2 1,3 1,5 1,-1 2,-2 3,-3 3,-3 7,-7 13,-10 5,-3 10,-4 14,-5zm-99 88l-1 -2c-9,-12 -30,-39 -11,-77 4,-9 8,-13 11,-16 1,-1 1,-1 2,-2 -4,1 -8,2 -12,4 -8,4 -14,11 -18,20 -4,9 -6,19 -5,29 0,11 3,22 8,31l1 2c2,4 4,9 8,9 3,0 7,1 11,1 2,0 5,0 7,0zm-7 -41c1,-1 2,-2 3,-3 2,-2 4,-4 9,-5 3,-1 5,-1 8,-1 4,0 8,2 11,4 3,2 5,6 6,10 1,2 1,5 0,7 0,2 -1,3 -1,5 -1,2 -1,3 -2,4 -1,1 -1,1 -2,2 -1,1 -3,2 -4,2 -1,0 -3,0 -4,-1 0,0 -1,-1 -1,-1l0 0c-3,-4 -1,-5 1,-8 1,-1 2,-2 2,-5 0,-3 -1,-5 -3,-7 -2,-1 -3,-1 -5,-1 -2,0 -4,1 -6,2 -3,2 -5,7 -4,13 1,2 3,6 5,9 3,4 7,8 9,10 1,1 3,1 5,0 3,-1 6,-3 9,-5 3,-2 6,-6 9,-9 4,-5 6,-12 5,-17 -4,-13 -12,-20 -22,-23 -4,-1 -8,-2 -12,-2 -4,0 -7,0 -10,1 -3,1 -5,2 -5,3 0,1 -1,4 -1,6 0,3 0,6 1,8zm-62 89c-1,-5 -3,-15 -5,-24 -2,-8 -4,-15 -5,-17 -2,-1 -7,-2 -12,-2 -9,-1 -19,-1 -25,-1 1,7 5,18 9,27 1,3 2,6 3,8 1,1 1,3 1,4 1,3 1,4 2,4 1,0 2,0 5,0 1,0 3,0 5,0 2,0 5,0 7,0 5,0 10,0 16,0zm24 54l32 -1c0,-4 -1,-9 -2,-13 -1,-3 -1,-5 -1,-7 0,-2 0,-4 -1,-5 -1,-6 -1,-12 -4,-16l-34 -1 10 43zm-38 1l27 -1c0,-3 -2,-11 -4,-19 -2,-10 -5,-21 -7,-25l-31 -1c1,3 2,8 4,14 4,12 9,25 11,31zm178 -176c0,4 0,6 0,9 0,6 0,12 -3,19 -3,10 -8,18 -15,26 -7,8 -16,14 -25,19 -1,1 -3,1 -4,2 -2,1 -3,1 -4,2 3,1 6,1 9,1 1,0 2,0 4,0l2 0c6,1 8,1 13,-2 8,-6 15,-12 20,-20 5,-8 9,-16 10,-26 1,-5 1,-12 0,-19 0,-5 -1,-9 -3,-12l-3 1zm-137 185c0,3 2,10 3,17 2,8 4,16 5,19l27 -2c0,-1 0,-1 -1,-7 -1,-3 -1,-7 -2,-11 -1,-6 -2,-12 -3,-17l-30 1zm41 -1c0,4 1,12 2,19 1,6 2,12 3,14l28 -2c0,-4 0,-11 -1,-18 0,-7 -1,-13 -1,-14 0,-1 -2,-1 -4,-1 -1,0 -1,0 -2,0 -2,0 -3,0 -5,0 -1,0 -3,0 -4,0 -3,0 -6,0 -9,0 -2,0 -5,0 -7,1zm42 -2c0,5 0,14 0,22 0,5 1,9 1,10 1,1 2,1 5,0l0 0c1,0 3,0 4,-1 1,0 3,0 4,-1 2,0 3,0 5,0 4,0 8,0 10,-2 1,-2 1,-7 2,-12 0,-7 1,-14 0,-18l-31 1zm-12 -10l-1 -19c-3,-1 -6,-2 -9,-3 -4,-1 -8,-2 -11,-4 -2,-1 -4,-2 -7,-4 -3,-2 -7,-4 -9,-5 1,9 3,23 5,32l0 2c0,3 2,3 8,2 2,0 4,0 6,0l1 0c6,0 12,0 17,-1zm-108 15c1,3 2,10 4,16 3,9 6,18 7,21l22 -1c-1,-6 -3,-17 -6,-25 -1,-4 -2,-8 -3,-11l-26 0zm211 -59c4,0 11,1 17,1 6,0 11,0 14,0 1,-3 3,-9 4,-15 1,-5 2,-9 3,-12l-32 -3c-1,3 -2,9 -3,15 -1,6 -2,12 -2,15zm-105 -3l0 -8c-3,-2 -6,-4 -8,-5 -9,-5 -14,-8 -24,-19 -1,-1 -1,-1 -2,-2 -2,-2 -3,-3 -7,-4 0,4 2,12 3,20 1,7 2,14 3,15 2,3 6,3 12,3 1,0 2,0 4,0l5 0c5,0 11,0 16,0zm56 56l-1 30 28 -2c1,-4 2,-10 3,-16 1,-5 1,-9 1,-13l-31 1zm44 -12l26 -1c1,-3 4,-10 5,-17 1,-5 2,-9 3,-12 -3,0 -7,0 -10,0l-5 0c-3,0 -5,0 -7,0 -5,0 -7,0 -7,1 0,1 -1,8 -2,15 -1,5 -1,11 -2,14zm-177 -99l16 1c-1,-2 -2,-4 -3,-6 -1,-2 -2,-5 -3,-7 -1,-3 -2,-7 -3,-10 -1,-3 -1,-6 -1,-9 -1,-16 1,-23 3,-30 1,-2 1,-4 2,-6 -3,2 -6,5 -8,9 -3,5 -6,11 -7,17 -1,7 -1,16 0,24 1,7 3,13 5,17zm88 38c4,3 12,5 19,6 7,1 14,2 20,1l1 -20 -40 -4 0 17zm48 -26c8,2 13,1 18,-3 5,-4 9,-11 13,-21 3,-7 6,-19 5,-29 -1,-6 -3,-11 -6,-14 0,11 -1,20 -3,29 -3,10 -7,18 -15,28 -2,2 -4,4 -7,7 -1,1 -3,3 -4,4zm-142 41l29 1c-2,-2 -4,-4 -7,-7 -3,-3 -7,-7 -10,-10 -3,-4 -6,-8 -8,-13 -2,-4 -4,-7 -6,-10l-8 0c1,4 2,13 4,21 2,8 4,16 5,19zm153 160c-6,3 -8,8 -8,14 0,2 1,4 2,6 1,2 2,4 4,5 4,3 9,5 15,2 6,-3 9,-8 8,-14 0,-2 -1,-5 -2,-7 -1,-2 -2,-4 -4,-5 -4,-3 -9,-5 -15,-1zm-139 0c-6,2 -9,7 -10,12 0,2 0,4 1,6 1,2 2,4 3,5 3,4 9,6 16,4 6,-2 9,-7 10,-12 0,-2 0,-4 -1,-6 -1,-2 -2,-4 -3,-6 -3,-4 -9,-6 -15,-3zm128 -126l-1 14 31 0 4 -28c-2,1 -4,2 -6,3 -3,2 -6,3 -9,5 -6,3 -12,4 -18,6l-2 1zm-87 -151l1 0c14,-2 21,-3 35,5 12,7 15,15 18,20 0,1 1,2 1,3 1,-2 1,-3 1,-5 0,-4 -2,-9 -5,-14 -3,-5 -7,-9 -13,-13 -7,-5 -16,-8 -25,-8 -4,0 -7,1 -9,4 -2,2 -3,5 -4,8zm123 202l22 -1c2,-3 3,-8 5,-13 1,-5 2,-10 3,-14l-25 0 -4 28zm-72 -144c9,-4 18,-12 25,-22 7,-10 11,-21 11,-33 -8,6 -14,19 -20,30 -3,5 -5,10 -8,14 -1,2 -3,4 -5,7 -1,1 -2,3 -3,4zm-8 109c3,0 7,0 12,0 7,0 16,-1 21,-1l0 -12c-2,0 -3,0 -5,0 -4,0 -9,0 -13,0 -3,0 -5,-1 -8,-1 -2,0 -5,-1 -8,-1l0 15zm-25 -190c1,0 2,0 3,1 9,2 22,4 34,18 1,1 2,3 3,4l2 3c0,-1 0,-2 0,-3 -1,-7 -4,-14 -8,-19 -5,-5 -10,-9 -17,-9 -2,0 -3,0 -5,0 -3,0 -6,1 -9,3 -1,1 -3,2 -4,3zm70 145c3,1 9,1 13,1 2,0 3,0 4,0 2,0 4,0 6,0 2,0 4,0 5,0 7,0 11,-3 11,-22 -1,1 -2,2 -3,3 -1,1 -2,2 -3,3 -2,1 -4,2 -5,3 -2,1 -3,2 -5,3 -7,3 -10,4 -14,5 -2,0 -3,1 -5,1 -1,0 -2,0 -2,1 -1,0 0,0 -1,0 0,0 0,0 0,1l0 1zm28 -43l13 1c4,-6 6,-15 7,-23 0,-6 -1,-12 -3,-16 -1,2 -1,4 -2,6 -2,7 -4,16 -10,25 -1,1 -2,2 -2,3 -1,1 -2,3 -3,4zm-28 29c5,-1 12,-4 19,-7 5,-3 9,-6 11,-8 -4,0 -11,-1 -17,-1 -5,0 -10,-1 -12,-1l-1 17zm-109 -1c0,-4 -1,-8 -1,-12 -1,-5 -2,-9 -2,-14l-18 -2c2,4 6,11 11,17 4,4 8,8 11,11zm63 32c4,0 8,0 13,1 6,1 13,1 19,0l0 -6c-5,0 -11,-1 -17,-1 -6,0 -11,0 -16,0l1 6zm-15 -41l0 -12c-2,-1 -6,-1 -10,-1 -3,0 -6,0 -9,0 2,2 5,5 8,7 4,3 8,6 11,7zm-100 -34l10 1c0,-2 -1,-4 -1,-6 -1,-2 -1,-5 -2,-8 0,-2 0,-4 -1,-7 0,-2 0,-4 0,-6 -1,3 -2,6 -3,10 -1,5 -2,11 -2,14zm149 58l0 0c-2,0 -5,0 -9,0 -4,0 -8,0 -12,-1 -3,-1 -6,-2 -10,-2 -2,-1 -5,-1 -7,-2 0,3 0,4 2,5 1,0 6,0 9,1l3 0c3,0 8,0 13,1 4,0 8,0 11,0zm9 18c3,0 6,-1 9,-3 3,-1 7,-3 9,-4 -3,0 -6,0 -8,0l-4 0c-1,0 -1,0 -2,0 -1,0 -2,0 -3,0 -1,0 -2,2 -1,8zm-56 -3l0 -1c0,-1 0,-2 0,-3 0,-2 -1,-3 -5,-3l-2 0c-3,0 -6,0 -10,0 5,3 11,6 16,7z"/>
 </g>
</svg>
