<svg xmlns="http://www.w3.org/2000/svg" viewBox="0 0 512 512">
  <path style="fill:#ff5722" d="M267 258c0,-7 1,-8 -5,-8 -5,0 -10,0 -14,0 5,2 13,8 19,8zm7 2l-1 -8c8,-1 20,0 28,1l0 7c-9,2 -20,-1 -26,0 1,1 2,1 6,2 3,0 5,0 8,1 4,0 10,1 14,-1 1,-3 1,-7 0,-9 -5,-1 -25,-1 -30,0 0,8 0,8 2,9zm33 0c6,0 15,-5 19,-8 -4,-1 -9,-1 -14,-1 -4,0 -7,-2 -6,9zm-4 -14l0 -3c-4,-1 -11,0 -17,-1 -5,-1 -10,-3 -14,-4 0,4 -1,6 2,7 2,0 7,0 9,1 4,0 16,1 19,0zm-115 -44l10 1c0,-4 -2,-8 -3,-12 -1,-3 0,-11 -2,-13 -3,3 -7,19 -6,24zm78 27l0 -12c-4,-2 -13,-2 -18,-2 1,4 13,13 18,14zm8 31l1 0c6,-1 17,2 26,0l0 -7c-8,-1 -20,-2 -28,-1l1 8zm-45 -24c0,-7 -2,-16 -3,-23l-17 -1c2,6 14,23 20,25zm79 0c8,0 25,-9 26,-14 -3,-1 -23,-2 -26,-2l-1 16zm21 -22l12 0c6,-9 9,-26 2,-34 -3,4 -3,15 -9,25 -2,3 -4,5 -5,8zm-21 32c3,1 11,1 14,1 12,0 18,4 18,-20 -3,1 -5,3 -7,5 -3,2 -5,3 -8,5 -7,4 -8,3 -14,5 -4,1 -3,0 -3,4zm-54 -109c4,2 18,1 29,14 1,1 5,8 6,8 2,-16 -11,-31 -24,-29 -4,0 -10,3 -12,7zm19 143c6,1 21,0 27,-1l0 -12c-5,0 -10,0 -15,0 -5,0 -8,-1 -13,-1l0 14zm4 -80c17,-5 33,-26 32,-47 -10,5 -17,25 -24,35 -2,3 -7,9 -8,12zm56 107l19 -1c3,-4 6,-17 6,-23l-22 0 -4 24zm-92 -151c13,-2 17,-3 28,3 12,7 12,15 15,19 8,-12 -10,-35 -32,-34 -7,0 -11,5 -11,12zm66 111l-1 13 26 0 4 -25c-4,1 -9,5 -14,7 -5,2 -10,3 -16,5zm-95 94c-15,5 -8,29 8,24 14,-4 9,-29 -8,-24zm104 0c-14,7 -4,30 11,23 15,-7 4,-31 -11,-23zm-115 -118l26 1c-1,-3 -9,-10 -14,-15 -5,-6 -7,-12 -12,-18l-8 0c0,4 6,30 8,33zm105 -31c16,4 20,-3 27,-18 4,-9 8,-30 -4,-36 1,19 -2,31 -13,45 -3,3 -8,8 -9,10zm-35 20c6,4 23,7 32,5l1 -18 -33 -3 0 15zm-65 -28l15 1c-1,-4 -4,-8 -5,-12 -1,-4 -3,-9 -3,-14 -1,-17 2,-20 4,-30 -6,2 -14,13 -15,22 -1,11 0,26 5,33zm133 74l22 -1c2,-4 7,-20 6,-25 -4,0 -9,0 -13,0 -8,0 -11,-2 -12,2 -1,2 -3,21 -3,24zm-33 6l-1 25 23 -2c1,-5 4,-19 4,-24l-26 1zm-39 -39l0 -8c-12,-7 -15,-8 -25,-18 -3,-3 -3,-5 -10,-5 0,4 3,26 5,28 2,4 7,3 13,3 6,0 11,0 17,0zm76 2c5,1 21,1 26,0 1,-3 5,-19 6,-23l-27 -2c-1,2 -4,22 -4,25zm-158 42c0,4 8,28 10,31l19 -1c0,-7 -5,-23 -7,-30l-22 0zm84 -8l-1 -17c-5,-2 -11,-3 -16,-6 -3,-2 -12,-7 -15,-8 0,7 3,20 4,28 1,4 2,3 12,3 5,0 10,0 15,-1zm6 5c0,5 0,24 1,26 1,1 3,1 5,1 2,0 4,-1 6,-1 4,0 10,0 12,-2 2,-3 2,-21 2,-25l-26 1zm-32 1c0,4 3,26 4,28l23 -2c0,-3 -1,-25 -2,-26 -1,-2 -3,-1 -6,-1 -2,0 -5,0 -7,0 -4,0 -9,0 -14,1zm-31 1c-1,2 5,27 6,30l22 -2c1,-2 1,-1 0,-7 -1,-6 -2,-17 -3,-22l-25 1zm103 -139c-1,9 0,14 -3,22 -5,14 -16,26 -30,33 -3,1 -7,2 -9,4 3,2 9,2 13,2 6,1 8,1 12,-2 12,-9 21,-20 23,-36 1,-7 1,-20 -2,-25l-5 1zm-134 135l23 -1c1,-3 -7,-33 -8,-36l-26 -1c0,5 10,32 12,37zm28 -1l27 -1c0,-5 -2,-12 -2,-17 -1,-6 -1,-13 -4,-17l-28 -1 8 35zm-15 -40c0,-4 -6,-31 -8,-33 -5,-3 -24,-3 -31,-3 1,7 7,21 9,28 3,8 1,7 11,7 6,0 13,0 19,0zm44 -66c5,-1 5,-5 11,-6 10,-2 18,4 17,14 0,2 -1,5 -2,6 -2,3 -4,3 -6,1 -3,-4 2,-3 2,-8 1,-12 -20,-9 -17,7 1,5 8,13 11,15 6,4 26,-13 23,-25 -7,-25 -37,-22 -39,-16 -1,3 0,10 0,13zm10 30c-3,-5 -27,-27 -11,-60 5,-10 9,-11 12,-16 -30,1 -38,40 -25,65 2,3 4,8 8,9 4,1 13,1 17,1zm84 -67c-10,0 -14,1 -22,5 -7,3 -10,8 -14,11 -2,-4 -2,-9 -4,-14 -3,-5 -5,-6 -7,-10 14,0 21,13 28,5 -6,-8 -30,-12 -43,-13 -40,-1 -70,20 -84,56 -4,11 -5,20 -6,22 -7,1 -20,-1 -27,-2 -2,-2 -6,-16 -7,-20 -6,-18 1,-10 -35,-23 -4,-1 -7,-2 -10,-4 -5,-2 -5,-3 -10,-1l0 4c4,2 18,6 24,8 4,2 8,3 12,4 4,1 8,2 10,6 6,16 11,33 17,49 6,16 11,32 16,48 3,8 5,16 8,24 2,7 7,18 8,25 -3,3 -16,9 -11,24 1,4 5,8 8,10 5,3 9,2 15,3 -3,7 -7,12 -2,21 10,20 39,12 38,-10 0,-2 -1,-4 -1,-6 -1,-2 -2,-4 -1,-5 10,-1 48,-1 62,-1 3,0 8,0 10,1l0 2c-1,4 -5,10 0,19 10,19 39,11 37,-11 0,-5 -3,-7 -3,-11 5,0 11,0 15,-1 1,-2 1,-3 0,-6 -21,-2 -108,-1 -135,-1 -8,0 -23,1 -29,-2 -9,-4 -8,-15 -1,-20 5,-4 46,-6 56,-7l58 -5c10,-1 19,-2 29,-3 8,-1 22,-1 29,-3 2,-4 5,-16 6,-22 3,-11 19,-66 17,-69 -2,-3 -18,-3 -27,-4 -1,-22 -3,-38 -16,-56 -4,-6 -10,-10 -10,-14 11,0 16,1 24,-4 4,-3 11,-10 11,-18 0,-6 -5,-7 -6,-1 -3,14 -10,17 -26,17zm-333 -140l512 0 0 512 -512 0 0 -512z"/>
</svg>
